G04 MADE WITH FRITZING*
G04 WWW.FRITZING.ORG*
G04 DOUBLE SIDED*
G04 HOLES PLATED*
G04 CONTOUR ON CENTER OF CONTOUR VECTOR*
%ASAXBY*%
%FSLAX23Y23*%
%MOIN*%
%OFA0B0*%
%SFA1.0B1.0*%
%ADD10C,0.638000X0.622*%
%ADD11R,4.082570X1.481150X4.066570X1.465150*%
%ADD12C,0.008000*%
%ADD13R,0.001000X0.001000*%
%LNSILK0*%
G90*
G70*
G54D10*
X2188Y942D03*
G54D12*
X4Y1477D02*
X4079Y1477D01*
X4079Y4D01*
X4Y4D01*
X4Y1477D01*
D02*
X2313Y1017D02*
X2363Y1017D01*
G54D13*
X2787Y1123D02*
X2798Y1123D01*
X2888Y1123D02*
X2911Y1123D01*
X2938Y1123D02*
X2961Y1123D01*
X2988Y1123D02*
X3011Y1123D01*
X3047Y1123D02*
X3064Y1123D01*
X2785Y1122D02*
X2801Y1122D01*
X2886Y1122D02*
X2913Y1122D01*
X2936Y1122D02*
X2963Y1122D01*
X2986Y1122D02*
X3013Y1122D01*
X3046Y1122D02*
X3065Y1122D01*
X2785Y1121D02*
X2803Y1121D01*
X2885Y1121D02*
X2914Y1121D01*
X2935Y1121D02*
X2964Y1121D01*
X2985Y1121D02*
X3014Y1121D01*
X3046Y1121D02*
X3066Y1121D01*
X2785Y1120D02*
X2804Y1120D01*
X2884Y1120D02*
X2915Y1120D01*
X2934Y1120D02*
X2965Y1120D01*
X2984Y1120D02*
X3015Y1120D01*
X3046Y1120D02*
X3066Y1120D01*
X2785Y1119D02*
X2805Y1119D01*
X2883Y1119D02*
X2916Y1119D01*
X2933Y1119D02*
X2966Y1119D01*
X2983Y1119D02*
X3016Y1119D01*
X3046Y1119D02*
X3066Y1119D01*
X2785Y1118D02*
X2806Y1118D01*
X2883Y1118D02*
X2916Y1118D01*
X2933Y1118D02*
X2966Y1118D01*
X2983Y1118D02*
X3016Y1118D01*
X3046Y1118D02*
X3066Y1118D01*
X2786Y1117D02*
X2806Y1117D01*
X2883Y1117D02*
X2916Y1117D01*
X2933Y1117D02*
X2966Y1117D01*
X2983Y1117D02*
X3016Y1117D01*
X3046Y1117D02*
X3065Y1117D01*
X2798Y1116D02*
X2807Y1116D01*
X2883Y1116D02*
X2889Y1116D01*
X2910Y1116D02*
X2916Y1116D01*
X2933Y1116D02*
X2939Y1116D01*
X2960Y1116D02*
X2966Y1116D01*
X2983Y1116D02*
X2989Y1116D01*
X3010Y1116D02*
X3016Y1116D01*
X3046Y1116D02*
X3053Y1116D01*
X2800Y1115D02*
X2807Y1115D01*
X2883Y1115D02*
X2889Y1115D01*
X2910Y1115D02*
X2916Y1115D01*
X2933Y1115D02*
X2939Y1115D01*
X2960Y1115D02*
X2966Y1115D01*
X2983Y1115D02*
X2989Y1115D01*
X3010Y1115D02*
X3016Y1115D01*
X3046Y1115D02*
X3053Y1115D01*
X2801Y1114D02*
X2807Y1114D01*
X2883Y1114D02*
X2889Y1114D01*
X2910Y1114D02*
X2916Y1114D01*
X2933Y1114D02*
X2939Y1114D01*
X2960Y1114D02*
X2966Y1114D01*
X2983Y1114D02*
X2989Y1114D01*
X3010Y1114D02*
X3016Y1114D01*
X3046Y1114D02*
X3053Y1114D01*
X2801Y1113D02*
X2808Y1113D01*
X2883Y1113D02*
X2889Y1113D01*
X2910Y1113D02*
X2916Y1113D01*
X2933Y1113D02*
X2939Y1113D01*
X2960Y1113D02*
X2966Y1113D01*
X2983Y1113D02*
X2989Y1113D01*
X3010Y1113D02*
X3016Y1113D01*
X3046Y1113D02*
X3053Y1113D01*
X2802Y1112D02*
X2808Y1112D01*
X2883Y1112D02*
X2889Y1112D01*
X2910Y1112D02*
X2916Y1112D01*
X2933Y1112D02*
X2939Y1112D01*
X2960Y1112D02*
X2966Y1112D01*
X2983Y1112D02*
X2989Y1112D01*
X3010Y1112D02*
X3016Y1112D01*
X3046Y1112D02*
X3053Y1112D01*
X2802Y1111D02*
X2808Y1111D01*
X2883Y1111D02*
X2889Y1111D01*
X2910Y1111D02*
X2916Y1111D01*
X2933Y1111D02*
X2939Y1111D01*
X2960Y1111D02*
X2966Y1111D01*
X2983Y1111D02*
X2989Y1111D01*
X3010Y1111D02*
X3016Y1111D01*
X3046Y1111D02*
X3053Y1111D01*
X2802Y1110D02*
X2808Y1110D01*
X2883Y1110D02*
X2889Y1110D01*
X2910Y1110D02*
X2916Y1110D01*
X2933Y1110D02*
X2939Y1110D01*
X2960Y1110D02*
X2966Y1110D01*
X2983Y1110D02*
X2989Y1110D01*
X3010Y1110D02*
X3016Y1110D01*
X3046Y1110D02*
X3053Y1110D01*
X2802Y1109D02*
X2808Y1109D01*
X2883Y1109D02*
X2889Y1109D01*
X2910Y1109D02*
X2916Y1109D01*
X2933Y1109D02*
X2939Y1109D01*
X2960Y1109D02*
X2966Y1109D01*
X2983Y1109D02*
X2989Y1109D01*
X3010Y1109D02*
X3016Y1109D01*
X3046Y1109D02*
X3053Y1109D01*
X2793Y1108D02*
X2813Y1108D01*
X2839Y1108D02*
X2843Y1108D01*
X2852Y1108D02*
X2857Y1108D01*
X2862Y1108D02*
X2865Y1108D01*
X2883Y1108D02*
X2889Y1108D01*
X2910Y1108D02*
X2916Y1108D01*
X2933Y1108D02*
X2939Y1108D01*
X2960Y1108D02*
X2966Y1108D01*
X2983Y1108D02*
X2989Y1108D01*
X3010Y1108D02*
X3016Y1108D01*
X3046Y1108D02*
X3053Y1108D01*
X2792Y1107D02*
X2814Y1107D01*
X2837Y1107D02*
X2845Y1107D01*
X2850Y1107D02*
X2859Y1107D01*
X2861Y1107D02*
X2866Y1107D01*
X2883Y1107D02*
X2889Y1107D01*
X2910Y1107D02*
X2916Y1107D01*
X2933Y1107D02*
X2939Y1107D01*
X2960Y1107D02*
X2966Y1107D01*
X2983Y1107D02*
X2989Y1107D01*
X3010Y1107D02*
X3016Y1107D01*
X3046Y1107D02*
X3053Y1107D01*
X2792Y1106D02*
X2814Y1106D01*
X2836Y1106D02*
X2846Y1106D01*
X2849Y1106D02*
X2867Y1106D01*
X2883Y1106D02*
X2889Y1106D01*
X2910Y1106D02*
X2916Y1106D01*
X2933Y1106D02*
X2939Y1106D01*
X2960Y1106D02*
X2966Y1106D01*
X2983Y1106D02*
X2989Y1106D01*
X3010Y1106D02*
X3016Y1106D01*
X3046Y1106D02*
X3053Y1106D01*
X2791Y1105D02*
X2815Y1105D01*
X2835Y1105D02*
X2867Y1105D01*
X2883Y1105D02*
X2889Y1105D01*
X2910Y1105D02*
X2916Y1105D01*
X2933Y1105D02*
X2939Y1105D01*
X2960Y1105D02*
X2966Y1105D01*
X2983Y1105D02*
X2989Y1105D01*
X3010Y1105D02*
X3016Y1105D01*
X3046Y1105D02*
X3053Y1105D01*
X2792Y1104D02*
X2814Y1104D01*
X2834Y1104D02*
X2867Y1104D01*
X2883Y1104D02*
X2889Y1104D01*
X2910Y1104D02*
X2916Y1104D01*
X2933Y1104D02*
X2939Y1104D01*
X2960Y1104D02*
X2966Y1104D01*
X2983Y1104D02*
X2989Y1104D01*
X3010Y1104D02*
X3016Y1104D01*
X3046Y1104D02*
X3053Y1104D01*
X2792Y1103D02*
X2814Y1103D01*
X2834Y1103D02*
X2867Y1103D01*
X2883Y1103D02*
X2889Y1103D01*
X2910Y1103D02*
X2916Y1103D01*
X2933Y1103D02*
X2939Y1103D01*
X2960Y1103D02*
X2966Y1103D01*
X2983Y1103D02*
X2989Y1103D01*
X3010Y1103D02*
X3016Y1103D01*
X3046Y1103D02*
X3053Y1103D01*
X2793Y1102D02*
X2813Y1102D01*
X2833Y1102D02*
X2867Y1102D01*
X2883Y1102D02*
X2889Y1102D01*
X2910Y1102D02*
X2916Y1102D01*
X2933Y1102D02*
X2939Y1102D01*
X2960Y1102D02*
X2966Y1102D01*
X2983Y1102D02*
X2989Y1102D01*
X3010Y1102D02*
X3016Y1102D01*
X3046Y1102D02*
X3053Y1102D01*
X2802Y1101D02*
X2808Y1101D01*
X2833Y1101D02*
X2840Y1101D01*
X2843Y1101D02*
X2853Y1101D01*
X2856Y1101D02*
X2867Y1101D01*
X2883Y1101D02*
X2889Y1101D01*
X2910Y1101D02*
X2916Y1101D01*
X2933Y1101D02*
X2939Y1101D01*
X2960Y1101D02*
X2966Y1101D01*
X2983Y1101D02*
X2989Y1101D01*
X3010Y1101D02*
X3016Y1101D01*
X3046Y1101D02*
X3053Y1101D01*
X2802Y1100D02*
X2808Y1100D01*
X2833Y1100D02*
X2839Y1100D01*
X2844Y1100D02*
X2853Y1100D01*
X2857Y1100D02*
X2867Y1100D01*
X2883Y1100D02*
X2889Y1100D01*
X2910Y1100D02*
X2916Y1100D01*
X2933Y1100D02*
X2939Y1100D01*
X2960Y1100D02*
X2966Y1100D01*
X2983Y1100D02*
X2989Y1100D01*
X3010Y1100D02*
X3016Y1100D01*
X3046Y1100D02*
X3053Y1100D01*
X2802Y1099D02*
X2808Y1099D01*
X2833Y1099D02*
X2839Y1099D01*
X2845Y1099D02*
X2853Y1099D01*
X2859Y1099D02*
X2867Y1099D01*
X2883Y1099D02*
X2889Y1099D01*
X2910Y1099D02*
X2916Y1099D01*
X2933Y1099D02*
X2939Y1099D01*
X2960Y1099D02*
X2966Y1099D01*
X2983Y1099D02*
X2989Y1099D01*
X3010Y1099D02*
X3016Y1099D01*
X3046Y1099D02*
X3053Y1099D01*
X2802Y1098D02*
X2808Y1098D01*
X2833Y1098D02*
X2839Y1098D01*
X2846Y1098D02*
X2853Y1098D01*
X2860Y1098D02*
X2867Y1098D01*
X2883Y1098D02*
X2889Y1098D01*
X2910Y1098D02*
X2916Y1098D01*
X2933Y1098D02*
X2939Y1098D01*
X2960Y1098D02*
X2966Y1098D01*
X2983Y1098D02*
X2989Y1098D01*
X3010Y1098D02*
X3016Y1098D01*
X3046Y1098D02*
X3053Y1098D01*
X2802Y1097D02*
X2808Y1097D01*
X2833Y1097D02*
X2839Y1097D01*
X2847Y1097D02*
X2853Y1097D01*
X2861Y1097D02*
X2867Y1097D01*
X2883Y1097D02*
X2889Y1097D01*
X2910Y1097D02*
X2916Y1097D01*
X2933Y1097D02*
X2939Y1097D01*
X2960Y1097D02*
X2966Y1097D01*
X2983Y1097D02*
X2989Y1097D01*
X3010Y1097D02*
X3016Y1097D01*
X3046Y1097D02*
X3053Y1097D01*
X2802Y1096D02*
X2808Y1096D01*
X2833Y1096D02*
X2839Y1096D01*
X2847Y1096D02*
X2853Y1096D01*
X2861Y1096D02*
X2867Y1096D01*
X2883Y1096D02*
X2889Y1096D01*
X2910Y1096D02*
X2916Y1096D01*
X2933Y1096D02*
X2939Y1096D01*
X2960Y1096D02*
X2966Y1096D01*
X2983Y1096D02*
X2989Y1096D01*
X3010Y1096D02*
X3016Y1096D01*
X3046Y1096D02*
X3053Y1096D01*
X2802Y1095D02*
X2808Y1095D01*
X2833Y1095D02*
X2839Y1095D01*
X2847Y1095D02*
X2853Y1095D01*
X2861Y1095D02*
X2867Y1095D01*
X2883Y1095D02*
X2889Y1095D01*
X2910Y1095D02*
X2916Y1095D01*
X2933Y1095D02*
X2939Y1095D01*
X2960Y1095D02*
X2966Y1095D01*
X2983Y1095D02*
X2989Y1095D01*
X3010Y1095D02*
X3016Y1095D01*
X3046Y1095D02*
X3053Y1095D01*
X2802Y1094D02*
X2808Y1094D01*
X2833Y1094D02*
X2839Y1094D01*
X2847Y1094D02*
X2853Y1094D01*
X2861Y1094D02*
X2867Y1094D01*
X2883Y1094D02*
X2889Y1094D01*
X2910Y1094D02*
X2916Y1094D01*
X2933Y1094D02*
X2939Y1094D01*
X2960Y1094D02*
X2966Y1094D01*
X2983Y1094D02*
X2989Y1094D01*
X3010Y1094D02*
X3016Y1094D01*
X3046Y1094D02*
X3053Y1094D01*
X2802Y1093D02*
X2808Y1093D01*
X2833Y1093D02*
X2839Y1093D01*
X2847Y1093D02*
X2853Y1093D01*
X2861Y1093D02*
X2867Y1093D01*
X2883Y1093D02*
X2889Y1093D01*
X2910Y1093D02*
X2916Y1093D01*
X2933Y1093D02*
X2939Y1093D01*
X2960Y1093D02*
X2966Y1093D01*
X2983Y1093D02*
X2989Y1093D01*
X3010Y1093D02*
X3016Y1093D01*
X3034Y1093D02*
X3037Y1093D01*
X3046Y1093D02*
X3053Y1093D01*
X2802Y1092D02*
X2808Y1092D01*
X2833Y1092D02*
X2839Y1092D01*
X2847Y1092D02*
X2853Y1092D01*
X2861Y1092D02*
X2867Y1092D01*
X2883Y1092D02*
X2889Y1092D01*
X2910Y1092D02*
X2916Y1092D01*
X2933Y1092D02*
X2939Y1092D01*
X2960Y1092D02*
X2966Y1092D01*
X2983Y1092D02*
X2989Y1092D01*
X3010Y1092D02*
X3016Y1092D01*
X3033Y1092D02*
X3038Y1092D01*
X3046Y1092D02*
X3053Y1092D01*
X2802Y1091D02*
X2808Y1091D01*
X2833Y1091D02*
X2839Y1091D01*
X2847Y1091D02*
X2853Y1091D01*
X2861Y1091D02*
X2867Y1091D01*
X2883Y1091D02*
X2889Y1091D01*
X2910Y1091D02*
X2916Y1091D01*
X2933Y1091D02*
X2939Y1091D01*
X2960Y1091D02*
X2966Y1091D01*
X2983Y1091D02*
X2989Y1091D01*
X3010Y1091D02*
X3016Y1091D01*
X3033Y1091D02*
X3039Y1091D01*
X3046Y1091D02*
X3053Y1091D01*
X2802Y1090D02*
X2808Y1090D01*
X2833Y1090D02*
X2839Y1090D01*
X2847Y1090D02*
X2853Y1090D01*
X2861Y1090D02*
X2867Y1090D01*
X2883Y1090D02*
X2889Y1090D01*
X2910Y1090D02*
X2916Y1090D01*
X2933Y1090D02*
X2939Y1090D01*
X2960Y1090D02*
X2966Y1090D01*
X2983Y1090D02*
X2989Y1090D01*
X3010Y1090D02*
X3016Y1090D01*
X3033Y1090D02*
X3039Y1090D01*
X3046Y1090D02*
X3053Y1090D01*
X2802Y1089D02*
X2808Y1089D01*
X2833Y1089D02*
X2839Y1089D01*
X2847Y1089D02*
X2853Y1089D01*
X2861Y1089D02*
X2867Y1089D01*
X2883Y1089D02*
X2889Y1089D01*
X2910Y1089D02*
X2916Y1089D01*
X2933Y1089D02*
X2939Y1089D01*
X2960Y1089D02*
X2966Y1089D01*
X2983Y1089D02*
X2989Y1089D01*
X3010Y1089D02*
X3016Y1089D01*
X3033Y1089D02*
X3039Y1089D01*
X3046Y1089D02*
X3053Y1089D01*
X2802Y1088D02*
X2808Y1088D01*
X2833Y1088D02*
X2839Y1088D01*
X2847Y1088D02*
X2853Y1088D01*
X2861Y1088D02*
X2867Y1088D01*
X2883Y1088D02*
X2889Y1088D01*
X2910Y1088D02*
X2916Y1088D01*
X2933Y1088D02*
X2939Y1088D01*
X2960Y1088D02*
X2966Y1088D01*
X2983Y1088D02*
X2989Y1088D01*
X3010Y1088D02*
X3016Y1088D01*
X3033Y1088D02*
X3039Y1088D01*
X3046Y1088D02*
X3053Y1088D01*
X2802Y1087D02*
X2808Y1087D01*
X2833Y1087D02*
X2839Y1087D01*
X2847Y1087D02*
X2853Y1087D01*
X2861Y1087D02*
X2867Y1087D01*
X2883Y1087D02*
X2889Y1087D01*
X2910Y1087D02*
X2916Y1087D01*
X2933Y1087D02*
X2939Y1087D01*
X2960Y1087D02*
X2966Y1087D01*
X2983Y1087D02*
X2989Y1087D01*
X3010Y1087D02*
X3016Y1087D01*
X3033Y1087D02*
X3039Y1087D01*
X3046Y1087D02*
X3053Y1087D01*
X2802Y1086D02*
X2808Y1086D01*
X2833Y1086D02*
X2839Y1086D01*
X2847Y1086D02*
X2853Y1086D01*
X2861Y1086D02*
X2867Y1086D01*
X2883Y1086D02*
X2889Y1086D01*
X2910Y1086D02*
X2916Y1086D01*
X2933Y1086D02*
X2939Y1086D01*
X2960Y1086D02*
X2966Y1086D01*
X2983Y1086D02*
X2989Y1086D01*
X3010Y1086D02*
X3016Y1086D01*
X3033Y1086D02*
X3039Y1086D01*
X3046Y1086D02*
X3053Y1086D01*
X2802Y1085D02*
X2808Y1085D01*
X2833Y1085D02*
X2839Y1085D01*
X2847Y1085D02*
X2853Y1085D01*
X2861Y1085D02*
X2867Y1085D01*
X2883Y1085D02*
X2889Y1085D01*
X2910Y1085D02*
X2916Y1085D01*
X2933Y1085D02*
X2939Y1085D01*
X2960Y1085D02*
X2966Y1085D01*
X2983Y1085D02*
X2989Y1085D01*
X3010Y1085D02*
X3016Y1085D01*
X3033Y1085D02*
X3039Y1085D01*
X3046Y1085D02*
X3053Y1085D01*
X2802Y1084D02*
X2808Y1084D01*
X2833Y1084D02*
X2839Y1084D01*
X2847Y1084D02*
X2853Y1084D01*
X2861Y1084D02*
X2867Y1084D01*
X2883Y1084D02*
X2889Y1084D01*
X2910Y1084D02*
X2916Y1084D01*
X2933Y1084D02*
X2939Y1084D01*
X2960Y1084D02*
X2966Y1084D01*
X2983Y1084D02*
X2989Y1084D01*
X3010Y1084D02*
X3016Y1084D01*
X3033Y1084D02*
X3039Y1084D01*
X3046Y1084D02*
X3053Y1084D01*
X2802Y1083D02*
X2808Y1083D01*
X2833Y1083D02*
X2839Y1083D01*
X2847Y1083D02*
X2853Y1083D01*
X2861Y1083D02*
X2867Y1083D01*
X2883Y1083D02*
X2889Y1083D01*
X2910Y1083D02*
X2916Y1083D01*
X2933Y1083D02*
X2939Y1083D01*
X2960Y1083D02*
X2966Y1083D01*
X2983Y1083D02*
X2989Y1083D01*
X3010Y1083D02*
X3016Y1083D01*
X3033Y1083D02*
X3039Y1083D01*
X3046Y1083D02*
X3053Y1083D01*
X2802Y1082D02*
X2808Y1082D01*
X2833Y1082D02*
X2839Y1082D01*
X2847Y1082D02*
X2853Y1082D01*
X2861Y1082D02*
X2867Y1082D01*
X2883Y1082D02*
X2889Y1082D01*
X2910Y1082D02*
X2916Y1082D01*
X2933Y1082D02*
X2939Y1082D01*
X2960Y1082D02*
X2966Y1082D01*
X2983Y1082D02*
X2989Y1082D01*
X3010Y1082D02*
X3016Y1082D01*
X3033Y1082D02*
X3039Y1082D01*
X3046Y1082D02*
X3053Y1082D01*
X2802Y1081D02*
X2808Y1081D01*
X2833Y1081D02*
X2839Y1081D01*
X2847Y1081D02*
X2853Y1081D01*
X2861Y1081D02*
X2867Y1081D01*
X2883Y1081D02*
X2889Y1081D01*
X2910Y1081D02*
X2916Y1081D01*
X2933Y1081D02*
X2939Y1081D01*
X2960Y1081D02*
X2966Y1081D01*
X2983Y1081D02*
X2989Y1081D01*
X3010Y1081D02*
X3016Y1081D01*
X3033Y1081D02*
X3039Y1081D01*
X3046Y1081D02*
X3053Y1081D01*
X2802Y1080D02*
X2808Y1080D01*
X2832Y1080D02*
X2838Y1080D01*
X2847Y1080D02*
X2853Y1080D01*
X2861Y1080D02*
X2867Y1080D01*
X2883Y1080D02*
X2889Y1080D01*
X2910Y1080D02*
X2916Y1080D01*
X2933Y1080D02*
X2939Y1080D01*
X2960Y1080D02*
X2966Y1080D01*
X2983Y1080D02*
X2989Y1080D01*
X3010Y1080D02*
X3016Y1080D01*
X3033Y1080D02*
X3039Y1080D01*
X3046Y1080D02*
X3053Y1080D01*
X2802Y1079D02*
X2808Y1079D01*
X2832Y1079D02*
X2838Y1079D01*
X2847Y1079D02*
X2853Y1079D01*
X2861Y1079D02*
X2867Y1079D01*
X2883Y1079D02*
X2889Y1079D01*
X2910Y1079D02*
X2916Y1079D01*
X2933Y1079D02*
X2939Y1079D01*
X2960Y1079D02*
X2966Y1079D01*
X2983Y1079D02*
X2989Y1079D01*
X3010Y1079D02*
X3016Y1079D01*
X3033Y1079D02*
X3039Y1079D01*
X3046Y1079D02*
X3053Y1079D01*
X2802Y1078D02*
X2808Y1078D01*
X2832Y1078D02*
X2838Y1078D01*
X2847Y1078D02*
X2853Y1078D01*
X2861Y1078D02*
X2867Y1078D01*
X2883Y1078D02*
X2889Y1078D01*
X2910Y1078D02*
X2916Y1078D01*
X2933Y1078D02*
X2939Y1078D01*
X2960Y1078D02*
X2966Y1078D01*
X2983Y1078D02*
X2989Y1078D01*
X3010Y1078D02*
X3016Y1078D01*
X3033Y1078D02*
X3039Y1078D01*
X3046Y1078D02*
X3053Y1078D01*
X2802Y1077D02*
X2808Y1077D01*
X2832Y1077D02*
X2838Y1077D01*
X2847Y1077D02*
X2853Y1077D01*
X2861Y1077D02*
X2867Y1077D01*
X2883Y1077D02*
X2889Y1077D01*
X2910Y1077D02*
X2916Y1077D01*
X2933Y1077D02*
X2939Y1077D01*
X2960Y1077D02*
X2966Y1077D01*
X2983Y1077D02*
X2989Y1077D01*
X3010Y1077D02*
X3016Y1077D01*
X3033Y1077D02*
X3039Y1077D01*
X3046Y1077D02*
X3053Y1077D01*
X2802Y1076D02*
X2808Y1076D01*
X2832Y1076D02*
X2838Y1076D01*
X2847Y1076D02*
X2853Y1076D01*
X2861Y1076D02*
X2867Y1076D01*
X2883Y1076D02*
X2916Y1076D01*
X2933Y1076D02*
X2966Y1076D01*
X2983Y1076D02*
X3016Y1076D01*
X3033Y1076D02*
X3064Y1076D01*
X2802Y1075D02*
X2808Y1075D01*
X2832Y1075D02*
X2838Y1075D01*
X2847Y1075D02*
X2853Y1075D01*
X2861Y1075D02*
X2867Y1075D01*
X2883Y1075D02*
X2916Y1075D01*
X2933Y1075D02*
X2966Y1075D01*
X2983Y1075D02*
X3016Y1075D01*
X3033Y1075D02*
X3065Y1075D01*
X2802Y1074D02*
X2808Y1074D01*
X2832Y1074D02*
X2838Y1074D01*
X2847Y1074D02*
X2853Y1074D01*
X2861Y1074D02*
X2867Y1074D01*
X2883Y1074D02*
X2916Y1074D01*
X2933Y1074D02*
X2966Y1074D01*
X2983Y1074D02*
X3016Y1074D01*
X3033Y1074D02*
X3066Y1074D01*
X2802Y1073D02*
X2808Y1073D01*
X2832Y1073D02*
X2838Y1073D01*
X2847Y1073D02*
X2853Y1073D01*
X2861Y1073D02*
X2867Y1073D01*
X2884Y1073D02*
X2915Y1073D01*
X2934Y1073D02*
X2965Y1073D01*
X2983Y1073D02*
X3015Y1073D01*
X3033Y1073D02*
X3066Y1073D01*
X2802Y1072D02*
X2808Y1072D01*
X2832Y1072D02*
X2838Y1072D01*
X2847Y1072D02*
X2852Y1072D01*
X2861Y1072D02*
X2867Y1072D01*
X2884Y1072D02*
X2915Y1072D01*
X2934Y1072D02*
X2965Y1072D01*
X2984Y1072D02*
X3015Y1072D01*
X3033Y1072D02*
X3066Y1072D01*
X2802Y1071D02*
X2807Y1071D01*
X2833Y1071D02*
X2838Y1071D01*
X2847Y1071D02*
X2852Y1071D01*
X2861Y1071D02*
X2866Y1071D01*
X2885Y1071D02*
X2914Y1071D01*
X2935Y1071D02*
X2964Y1071D01*
X2985Y1071D02*
X3014Y1071D01*
X3033Y1071D02*
X3066Y1071D01*
X2803Y1070D02*
X2806Y1070D01*
X2834Y1070D02*
X2837Y1070D01*
X2848Y1070D02*
X2851Y1070D01*
X2862Y1070D02*
X2865Y1070D01*
X2887Y1070D02*
X2912Y1070D01*
X2937Y1070D02*
X2962Y1070D01*
X2987Y1070D02*
X3012Y1070D01*
X3034Y1070D02*
X3065Y1070D01*
D02*
G04 End of Silk0*
M02*