G04 MADE WITH FRITZING*
G04 WWW.FRITZING.ORG*
G04 DOUBLE SIDED*
G04 HOLES PLATED*
G04 CONTOUR ON CENTER OF CONTOUR VECTOR*
%ASAXBY*%
%FSLAX23Y23*%
%MOIN*%
%OFA0B0*%
%SFA1.0B1.0*%
%ADD10C,0.070000*%
%ADD11C,0.078000*%
%ADD12C,0.066000*%
%ADD13C,0.065000*%
%ADD14R,0.070000X0.069972*%
%ADD15R,0.078000X0.078000*%
%ADD16C,0.010000*%
%ADD17C,0.005000*%
%ADD18C,0.024000*%
%ADD19R,0.001000X0.001000*%
%LNCOPPER0*%
G90*
G70*
G54D10*
X1638Y1242D03*
X1538Y1242D03*
X1438Y1242D03*
X1338Y1242D03*
X1238Y1242D03*
X1138Y1242D03*
X1038Y1242D03*
X938Y1242D03*
X838Y1242D03*
X738Y1242D03*
X638Y1242D03*
X538Y1242D03*
X438Y1242D03*
X338Y1242D03*
X238Y1242D03*
X1638Y642D03*
X1538Y642D03*
X1438Y642D03*
X1338Y642D03*
X1238Y642D03*
X1138Y642D03*
X1038Y642D03*
X938Y642D03*
X838Y642D03*
X738Y642D03*
X638Y642D03*
X538Y642D03*
X438Y642D03*
X338Y642D03*
X238Y642D03*
G54D11*
X838Y142D03*
X1038Y142D03*
X1238Y142D03*
X1538Y142D03*
X1738Y142D03*
X1938Y142D03*
X2138Y142D03*
X2338Y142D03*
X2538Y142D03*
X2838Y142D03*
X3038Y142D03*
X3238Y142D03*
X3538Y142D03*
X3738Y142D03*
X3938Y142D03*
X138Y142D03*
X338Y142D03*
X538Y142D03*
X2335Y1342D03*
X2135Y1342D03*
X1935Y1342D03*
X2034Y1342D03*
X2238Y1342D03*
G54D12*
X2338Y942D03*
G54D13*
X2038Y942D03*
G54D12*
X2338Y942D03*
G54D13*
X2038Y942D03*
G54D12*
X2338Y942D03*
G54D13*
X2038Y942D03*
G54D14*
X1638Y1242D03*
G54D15*
X838Y142D03*
X1538Y142D03*
X2138Y142D03*
X2838Y142D03*
X3538Y142D03*
X138Y142D03*
X2335Y1342D03*
G54D16*
X2385Y1392D02*
X1885Y1392D01*
D02*
X1885Y1392D02*
X1885Y1292D01*
D02*
X1885Y1292D02*
X2385Y1292D01*
D02*
X2385Y1292D02*
X2385Y1392D01*
G54D17*
D02*
X2350Y1392D02*
X2385Y1357D01*
G54D18*
D02*
X3238Y42D02*
X3238Y111D01*
D02*
X3939Y42D02*
X3238Y42D01*
D02*
X3938Y111D02*
X3939Y42D01*
D02*
X2539Y42D02*
X2538Y111D01*
D02*
X3238Y42D02*
X2539Y42D01*
D02*
X3238Y111D02*
X3238Y42D01*
D02*
X1939Y42D02*
X1939Y111D01*
D02*
X2539Y42D02*
X1939Y42D01*
D02*
X2538Y111D02*
X2539Y42D01*
D02*
X1238Y42D02*
X1238Y111D01*
D02*
X1939Y42D02*
X1238Y42D01*
D02*
X1939Y111D02*
X1939Y42D01*
D02*
X540Y42D02*
X539Y111D01*
D02*
X1238Y42D02*
X540Y42D01*
D02*
X1238Y111D02*
X1238Y42D01*
D02*
X3539Y242D02*
X3538Y172D01*
D02*
X2838Y242D02*
X3539Y242D01*
D02*
X2838Y172D02*
X2838Y242D01*
D02*
X2139Y242D02*
X2139Y172D01*
D02*
X2838Y242D02*
X2139Y242D01*
D02*
X2838Y172D02*
X2838Y242D01*
D02*
X1539Y242D02*
X1539Y172D01*
D02*
X2139Y242D02*
X1539Y242D01*
D02*
X2139Y172D02*
X2139Y242D01*
D02*
X838Y242D02*
X838Y172D01*
D02*
X1539Y242D02*
X838Y242D01*
D02*
X1539Y172D02*
X1539Y242D01*
D02*
X140Y242D02*
X139Y172D01*
D02*
X838Y242D02*
X140Y242D01*
D02*
X838Y172D02*
X838Y242D01*
D02*
X38Y42D02*
X540Y42D01*
D02*
X540Y42D02*
X539Y111D01*
D02*
X38Y540D02*
X38Y42D01*
D02*
X1340Y540D02*
X38Y540D01*
D02*
X1339Y612D02*
X1340Y540D01*
D02*
X1738Y842D02*
X1739Y740D01*
D02*
X1739Y740D02*
X1539Y740D01*
D02*
X2338Y842D02*
X1738Y842D01*
D02*
X1539Y740D02*
X1538Y671D01*
D02*
X2335Y1312D02*
X2338Y842D01*
D02*
X1637Y1140D02*
X1939Y1442D01*
D02*
X2237Y1442D02*
X2238Y1372D01*
D02*
X1539Y1140D02*
X1637Y1140D01*
D02*
X1939Y1442D02*
X2237Y1442D01*
D02*
X1059Y662D02*
X1539Y1140D01*
D02*
X1359Y662D02*
X2013Y1320D01*
D02*
X2335Y1312D02*
X2338Y973D01*
D02*
X2038Y973D02*
X2034Y1311D01*
G54D19*
X2005Y974D02*
X2069Y974D01*
X2005Y973D02*
X2069Y973D01*
X2005Y972D02*
X2069Y972D01*
X2005Y971D02*
X2069Y971D01*
X2005Y970D02*
X2069Y970D01*
X2005Y969D02*
X2069Y969D01*
X2005Y968D02*
X2069Y968D01*
X2005Y967D02*
X2069Y967D01*
X2005Y966D02*
X2069Y966D01*
X2005Y965D02*
X2069Y965D01*
X2005Y964D02*
X2069Y964D01*
X2005Y963D02*
X2069Y963D01*
X2005Y962D02*
X2069Y962D01*
X2005Y961D02*
X2031Y961D01*
X2044Y961D02*
X2069Y961D01*
X2005Y960D02*
X2028Y960D01*
X2046Y960D02*
X2069Y960D01*
X2005Y959D02*
X2026Y959D01*
X2048Y959D02*
X2069Y959D01*
X2005Y958D02*
X2025Y958D01*
X2050Y958D02*
X2069Y958D01*
X2005Y957D02*
X2024Y957D01*
X2051Y957D02*
X2069Y957D01*
X2005Y956D02*
X2023Y956D01*
X2052Y956D02*
X2069Y956D01*
X2005Y955D02*
X2022Y955D01*
X2053Y955D02*
X2069Y955D01*
X2005Y954D02*
X2021Y954D01*
X2054Y954D02*
X2069Y954D01*
X2005Y953D02*
X2020Y953D01*
X2054Y953D02*
X2069Y953D01*
X2005Y952D02*
X2020Y952D01*
X2055Y952D02*
X2069Y952D01*
X2005Y951D02*
X2019Y951D01*
X2056Y951D02*
X2069Y951D01*
X2005Y950D02*
X2019Y950D01*
X2056Y950D02*
X2069Y950D01*
X2005Y949D02*
X2018Y949D01*
X2056Y949D02*
X2069Y949D01*
X2005Y948D02*
X2018Y948D01*
X2057Y948D02*
X2069Y948D01*
X2005Y947D02*
X2018Y947D01*
X2057Y947D02*
X2069Y947D01*
X2005Y946D02*
X2017Y946D01*
X2057Y946D02*
X2069Y946D01*
X2005Y945D02*
X2017Y945D01*
X2057Y945D02*
X2069Y945D01*
X2005Y944D02*
X2017Y944D01*
X2058Y944D02*
X2069Y944D01*
X2005Y943D02*
X2017Y943D01*
X2058Y943D02*
X2069Y943D01*
X2005Y942D02*
X2017Y942D01*
X2058Y942D02*
X2069Y942D01*
X2005Y941D02*
X2017Y941D01*
X2058Y941D02*
X2069Y941D01*
X2005Y940D02*
X2017Y940D01*
X2058Y940D02*
X2069Y940D01*
X2005Y939D02*
X2017Y939D01*
X2057Y939D02*
X2069Y939D01*
X2005Y938D02*
X2017Y938D01*
X2057Y938D02*
X2069Y938D01*
X2005Y937D02*
X2017Y937D01*
X2057Y937D02*
X2069Y937D01*
X2005Y936D02*
X2018Y936D01*
X2057Y936D02*
X2069Y936D01*
X2005Y935D02*
X2018Y935D01*
X2056Y935D02*
X2069Y935D01*
X2005Y934D02*
X2018Y934D01*
X2056Y934D02*
X2069Y934D01*
X2005Y933D02*
X2019Y933D01*
X2056Y933D02*
X2069Y933D01*
X2005Y932D02*
X2020Y932D01*
X2055Y932D02*
X2069Y932D01*
X2005Y931D02*
X2020Y931D01*
X2054Y931D02*
X2069Y931D01*
X2005Y930D02*
X2021Y930D01*
X2054Y930D02*
X2069Y930D01*
X2005Y929D02*
X2022Y929D01*
X2053Y929D02*
X2069Y929D01*
X2005Y928D02*
X2023Y928D01*
X2052Y928D02*
X2069Y928D01*
X2005Y927D02*
X2024Y927D01*
X2051Y927D02*
X2069Y927D01*
X2005Y926D02*
X2025Y926D01*
X2050Y926D02*
X2069Y926D01*
X2005Y925D02*
X2026Y925D01*
X2048Y925D02*
X2069Y925D01*
X2005Y924D02*
X2028Y924D01*
X2046Y924D02*
X2069Y924D01*
X2005Y923D02*
X2031Y923D01*
X2044Y923D02*
X2069Y923D01*
X2005Y922D02*
X2036Y922D01*
X2038Y922D02*
X2069Y922D01*
X2005Y921D02*
X2069Y921D01*
X2005Y920D02*
X2069Y920D01*
X2005Y919D02*
X2069Y919D01*
X2005Y918D02*
X2069Y918D01*
X2005Y917D02*
X2069Y917D01*
X2005Y916D02*
X2069Y916D01*
X2005Y915D02*
X2069Y915D01*
X2005Y914D02*
X2069Y914D01*
X2005Y913D02*
X2069Y913D01*
X2005Y912D02*
X2069Y912D01*
X2005Y911D02*
X2069Y911D01*
X2005Y910D02*
X2069Y910D01*
D02*
G04 End of Copper0*
M02*