; NON-PLATED HOLES START AT T1
; THROUGH (PLATED) HOLES START AT T100
M48
INCH
T100C0.036000
T101C0.040000
T102C0.038000
%
T100
X013381Y012415
X012381Y006415
X011381Y012415
X010381Y012415
X005381Y012415
X012381Y012415
X011381Y006415
X008381Y012415
X007381Y006415
X003381Y012415
X015381Y012415
X016381Y012415
X016381Y006415
X004381Y006415
X005381Y006415
X009381Y006415
X010381Y006415
X008381Y006415
X014381Y006415
X009381Y012415
X013381Y006415
X004381Y012415
X007381Y012415
X015381Y006415
X003381Y006415
X002381Y012415
X006381Y012415
X014381Y012415
X002381Y006415
X006381Y006415
T101
X020381Y009415
X023381Y009415
T102
X012381Y001415
X022381Y013415
X019381Y001415
X023350Y013420
X010381Y001415
X035381Y001415
X021350Y013420
X019350Y013420
X017381Y001415
X008381Y001415
X015381Y001415
X032381Y001415
X037381Y001415
X020339Y013415
X030381Y001415
X005381Y001415
X003381Y001415
X023381Y001415
X001381Y001415
X021381Y001415
X039381Y001415
X028381Y001415
X025381Y001415
T00
M30
