G04 MADE WITH FRITZING*
G04 WWW.FRITZING.ORG*
G04 DOUBLE SIDED*
G04 HOLES PLATED*
G04 CONTOUR ON CENTER OF CONTOUR VECTOR*
%ASAXBY*%
%FSLAX23Y23*%
%MOIN*%
%OFA0B0*%
%SFA1.0B1.0*%
%ADD10C,0.080000*%
%ADD11C,0.088000*%
%ADD12C,0.076000*%
%ADD13C,0.075000*%
%ADD14R,0.080000X0.079972*%
%ADD15R,0.088000X0.088000*%
%ADD16C,0.020000*%
%ADD17C,0.015000*%
%ADD18R,0.001000X0.001000*%
%LNMASK1*%
G90*
G70*
G54D10*
X1638Y1242D03*
X1538Y1242D03*
X1438Y1242D03*
X1338Y1242D03*
X1238Y1242D03*
X1138Y1242D03*
X1038Y1242D03*
X938Y1242D03*
X838Y1242D03*
X738Y1242D03*
X638Y1242D03*
X538Y1242D03*
X438Y1242D03*
X338Y1242D03*
X238Y1242D03*
X1638Y642D03*
X1538Y642D03*
X1438Y642D03*
X1338Y642D03*
X1238Y642D03*
X1138Y642D03*
X1038Y642D03*
X938Y642D03*
X838Y642D03*
X738Y642D03*
X638Y642D03*
X538Y642D03*
X438Y642D03*
X338Y642D03*
X238Y642D03*
G54D11*
X838Y142D03*
X1038Y142D03*
X1238Y142D03*
X1538Y142D03*
X1738Y142D03*
X1938Y142D03*
X2138Y142D03*
X2338Y142D03*
X2538Y142D03*
X2838Y142D03*
X3038Y142D03*
X3238Y142D03*
X3538Y142D03*
X3738Y142D03*
X3938Y142D03*
X138Y142D03*
X338Y142D03*
X538Y142D03*
X2335Y1342D03*
X2135Y1342D03*
X1935Y1342D03*
X2034Y1342D03*
X2238Y1342D03*
G54D12*
X2338Y942D03*
G54D13*
X2038Y942D03*
G54D12*
X2338Y942D03*
G54D13*
X2038Y942D03*
G54D12*
X2338Y942D03*
G54D13*
X2038Y942D03*
G54D14*
X1638Y1242D03*
G54D15*
X838Y142D03*
X1538Y142D03*
X2138Y142D03*
X2838Y142D03*
X3538Y142D03*
X138Y142D03*
X2335Y1342D03*
G54D16*
X2385Y1392D02*
X1885Y1392D01*
D02*
X1885Y1392D02*
X1885Y1292D01*
D02*
X1885Y1292D02*
X2385Y1292D01*
D02*
X2385Y1292D02*
X2385Y1392D01*
G54D17*
D02*
X2350Y1392D02*
X2385Y1357D01*
G54D18*
X2000Y979D02*
X2074Y979D01*
X2000Y978D02*
X2074Y978D01*
X2000Y977D02*
X2074Y977D01*
X2000Y976D02*
X2074Y976D01*
X2000Y975D02*
X2074Y975D01*
X2000Y974D02*
X2074Y974D01*
X2000Y973D02*
X2074Y973D01*
X2000Y972D02*
X2074Y972D01*
X2000Y971D02*
X2074Y971D01*
X2000Y970D02*
X2074Y970D01*
X2000Y969D02*
X2074Y969D01*
X2000Y968D02*
X2074Y968D01*
X2000Y967D02*
X2074Y967D01*
X2000Y966D02*
X2074Y966D01*
X2000Y965D02*
X2074Y965D01*
X2000Y964D02*
X2074Y964D01*
X2000Y963D02*
X2074Y963D01*
X2000Y962D02*
X2074Y962D01*
X2000Y961D02*
X2074Y961D01*
X2000Y960D02*
X2074Y960D01*
X2000Y959D02*
X2074Y959D01*
X2000Y958D02*
X2074Y958D01*
X2000Y957D02*
X2074Y957D01*
X2000Y956D02*
X2031Y956D01*
X2043Y956D02*
X2074Y956D01*
X2000Y955D02*
X2029Y955D01*
X2045Y955D02*
X2074Y955D01*
X2000Y954D02*
X2028Y954D01*
X2047Y954D02*
X2074Y954D01*
X2000Y953D02*
X2027Y953D01*
X2048Y953D02*
X2074Y953D01*
X2000Y952D02*
X2026Y952D01*
X2049Y952D02*
X2074Y952D01*
X2000Y951D02*
X2025Y951D01*
X2050Y951D02*
X2074Y951D01*
X2000Y950D02*
X2024Y950D01*
X2050Y950D02*
X2074Y950D01*
X2000Y949D02*
X2024Y949D01*
X2051Y949D02*
X2074Y949D01*
X2000Y948D02*
X2023Y948D01*
X2052Y948D02*
X2074Y948D01*
X2000Y947D02*
X2023Y947D01*
X2052Y947D02*
X2074Y947D01*
X2000Y946D02*
X2022Y946D01*
X2052Y946D02*
X2074Y946D01*
X2000Y945D02*
X2022Y945D01*
X2053Y945D02*
X2074Y945D01*
X2000Y944D02*
X2022Y944D01*
X2053Y944D02*
X2074Y944D01*
X2000Y943D02*
X2022Y943D01*
X2053Y943D02*
X2074Y943D01*
X2000Y942D02*
X2022Y942D01*
X2053Y942D02*
X2074Y942D01*
X2000Y941D02*
X2022Y941D01*
X2053Y941D02*
X2074Y941D01*
X2000Y940D02*
X2022Y940D01*
X2053Y940D02*
X2074Y940D01*
X2000Y939D02*
X2022Y939D01*
X2053Y939D02*
X2074Y939D01*
X2000Y938D02*
X2022Y938D01*
X2052Y938D02*
X2074Y938D01*
X2000Y937D02*
X2023Y937D01*
X2052Y937D02*
X2074Y937D01*
X2000Y936D02*
X2023Y936D01*
X2052Y936D02*
X2074Y936D01*
X2000Y935D02*
X2023Y935D01*
X2051Y935D02*
X2074Y935D01*
X2000Y934D02*
X2024Y934D01*
X2051Y934D02*
X2074Y934D01*
X2000Y933D02*
X2025Y933D01*
X2050Y933D02*
X2074Y933D01*
X2000Y932D02*
X2026Y932D01*
X2049Y932D02*
X2074Y932D01*
X2000Y931D02*
X2027Y931D01*
X2048Y931D02*
X2074Y931D01*
X2000Y930D02*
X2028Y930D01*
X2047Y930D02*
X2074Y930D01*
X2000Y929D02*
X2029Y929D01*
X2045Y929D02*
X2074Y929D01*
X2000Y928D02*
X2031Y928D01*
X2043Y928D02*
X2074Y928D01*
X2000Y927D02*
X2036Y927D01*
X2038Y927D02*
X2074Y927D01*
X2000Y926D02*
X2074Y926D01*
X2000Y925D02*
X2074Y925D01*
X2000Y924D02*
X2074Y924D01*
X2000Y923D02*
X2074Y923D01*
X2000Y922D02*
X2074Y922D01*
X2000Y921D02*
X2074Y921D01*
X2000Y920D02*
X2074Y920D01*
X2000Y919D02*
X2074Y919D01*
X2000Y918D02*
X2074Y918D01*
X2000Y917D02*
X2074Y917D01*
X2000Y916D02*
X2074Y916D01*
X2000Y915D02*
X2074Y915D01*
X2000Y914D02*
X2074Y914D01*
X2000Y913D02*
X2074Y913D01*
X2000Y912D02*
X2074Y912D01*
X2000Y911D02*
X2074Y911D01*
X2000Y910D02*
X2074Y910D01*
X2000Y909D02*
X2074Y909D01*
X2000Y908D02*
X2074Y908D01*
X2000Y907D02*
X2074Y907D01*
X2000Y906D02*
X2074Y906D01*
X2000Y905D02*
X2074Y905D01*
D02*
G04 End of Mask1*
M02*